/* XPM */
static char *_c3ce5e4ad3a4a57d03f45767e1251a46UTiFWSZ1CjfaCzU[] = {
/* columns rows colors chars-per-pixel */
"64 64 184 2 ",
"   c #381A1F",
".  c #361D21",
"X  c #3C1E22",
"o  c #3E2025",
"O  c #3E2428",
"+  c #461E1F",
"@  c #491E1F",
"#  c #421F22",
"$  c #4A1F20",
"%  c #442125",
"&  c #4B2224",
"*  c #43262A",
"=  c #4A2529",
"-  c #44292D",
";  c #4B2A2D",
":  c #532425",
">  c #5B2626",
",  c #5B2827",
"<  c #542628",
"1  c #5D2728",
"2  c #542C2D",
"3  c #5C2B2B",
"4  c #4B2E32",
"5  c #522D31",
"6  c #5B2F30",
"7  c #4C3236",
"8  c #553135",
"9  c #5C3233",
"0  c #543539",
"q  c #5C3739",
"w  c #54393E",
"e  c #5A393B",
"r  c #622626",
"t  c #682727",
"y  c #622827",
"u  c #642728",
"i  c #6B2728",
"p  c #642A2A",
"a  c #6B2A2B",
"s  c #712C2C",
"d  c #64302F",
"f  c #69302F",
"g  c #642F30",
"h  c #682F30",
"j  c #742F30",
"k  c #643232",
"l  c #6C3333",
"z  c #6F3837",
"x  c #6C3738",
"c  c #633B3D",
"v  c #6B3B3B",
"b  c #743434",
"n  c #7A3536",
"m  c #713837",
"M  c #7B3738",
"N  c #743A3A",
"B  c #7A3B3C",
"V  c #5B3F44",
"C  c #603E40",
"Z  c #743F40",
"A  c #5B4347",
"S  c #5E4548",
"D  c #644244",
"F  c #6B4243",
"G  c #654548",
"H  c #6D4748",
"J  c #65494D",
"K  c #6C4A4C",
"L  c #734444",
"P  c #7A4545",
"I  c #744B4B",
"U  c #7B4D4D",
"Y  c #664E51",
"T  c #6C4E51",
"R  c #714F50",
"E  c #7F4F50",
"W  c #6E5456",
"Q  c #6E5558",
"!  c #745354",
"~  c #7C5353",
"^  c #725659",
"/  c #755B5E",
"(  c #7B5A5B",
")  c #745E61",
"_  c #7D5F61",
"`  c #7C6264",
"'  c #7A6467",
"]  c #824B4B",
"[  c #825454",
"{  c #895454",
"}  c #855857",
"|  c #825758",
" . c #8C5758",
".. c #855A5B",
"X. c #8B5B5B",
"o. c #85605F",
"O. c #805E60",
"+. c #846364",
"@. c #8C6565",
"#. c #866768",
"$. c #856A6C",
"%. c #8D6C6D",
"&. c #916464",
"*. c #936C6B",
"=. c #9B6E6F",
"-. c #91706F",
";. c #98706F",
":. c #836F72",
">. c #8C6F70",
",. c #8B7375",
"<. c #8F797B",
"1. c #937474",
"2. c #9C7676",
"3. c #9A7877",
"4. c #987778",
"5. c #947A7C",
"6. c #9C7B7B",
"7. c #A07677",
"8. c #A27E7E",
"9. c #977F81",
"0. c #9A7F81",
"q. c #978080",
"w. c #9B8283",
"e. c #9B878A",
"r. c #9B8A8C",
"t. c #9D8D90",
"y. c #9E9092",
"u. c #A38484",
"i. c #A98787",
"p. c #A48C8D",
"a. c #AA8989",
"s. c #AA8C8C",
"d. c #B08F8F",
"f. c #A28F91",
"g. c #A59394",
"h. c #AC9293",
"j. c #A69799",
"k. c #AC9798",
"l. c #A79A9C",
"z. c #AD9B9C",
"x. c #B29595",
"c. c #B09798",
"v. c #B39C9C",
"b. c #B89D9D",
"n. c #BAA09F",
"m. c #AF9FA0",
"M. c #BD9FA0",
"N. c #B4A3A3",
"B. c #BCA6A6",
"V. c #BDA8A7",
"C. c #B6AAAC",
"Z. c #BBAAAB",
"A. c #C2ACAC",
"S. c #C5B4B4",
"D. c #C9B5B5",
"F. c #C2B7B9",
"G. c #C6BCBC",
"H. c #CBBBBB",
"J. c #D1C0BF",
"K. c #C8BFC0",
"L. c #CEC2C3",
"P. c #D3C5C5",
"I. c #D0C7C8",
"U. c #D4CBCB",
"Y. c #DACDCD",
"T. c #DBD0CF",
"R. c #DDD3D3",
"E. c #DFD2D2",
"W. c #DFD8D8",
"Q. c #E1D6D6",
"!. c #E4DBDC",
"~. c #E7DDDD",
"^. c #E9DFDF",
"/. c #E7E1E1",
"(. c #EAE4E4",
"). c #EEE9E9",
"_. c #F1EDED",
"`. c #F3EEEE",
"'. c #F2EFF0",
"]. c #F5F2F2",
"[. c #F6F2F2",
"{. c #F8F6F6",
"}. c #FCFBFB",
"|. c white",
/* pixels */
"s a s s s a s b b a a a a p p p a a a l b b l l l l a a a a a a a a a a a b b b b a a t a a s s s s s s s s s s s s s s s s b M ",
"s a s a s s s s a a a a a r p p a a a l l z l l l l a a a a a a a a a a a b b b b a t a a s s s s a a s s s s s s s s s s j M M ",
"a a a a s M s a a a a a p t t a a a a l l l l l l l a u a a a a r t t a a b b m l a a a a a s s s a a a s s s s s s s s s b M M ",
"a a a a b B a a a a a p u u a a a a a l l z z l m z l p a r r a N { { N b l l l a r a a a a s s a a a a a a s s s s s s s b n n ",
"a a a a a a a a a t p p p p a a a a p a l z z l z l a f N X.a.S.!.[.[.Q.S.a.&.P a r t a a a a a a a a a a a a a s s s s s M M n ",
"a a a a a a a a a t p p p p p p p p p a h f l m U ;.x.H.~.{.|.|.|.|.|.|.|.|.{.~.D.d.&.P a a i a a a a s s s a a a s s s b n n b ",
"a a a a a p p a a a t t p p p p y y p z [ 2.n.P.(.}.|.|.|.|.[.!.D.a.a.D.~.[.|.|.|.|.}.(.P.x.=.] m t a j s s s s s s j s b b b b ",
"a a a a p p p p p a p p r y p m [ 2.B.Y._.}.|.|.|.|._.E.A.8.} m p r y a P @.p.A.Q._.|.|.|.|.}.).Y.M.7.{ M a a s s a a b b b b b ",
"p p p p p p p p p p a N } 8.A.Q._.|.|.|.|.|.|.|.Y.u.} m p y y y p p p a l l l a z [ 2.B.Y._.|.|.|.|.|._.E.A.8. .B s a b N N b b ",
"p p p p p p y y y y @.!.[.|.|.|.|.}.(.P.b.6.h.Y.).A.E p p p p p y p p a l l l y y y 1 y l ] =.b.P.(.}.|.|.|.|.[.Q. .l m m b b a ",
"y p p y p y y 1 1 1 u.|.|.{.~.H.s.@.P l l a l Z 6.E.^.2.p p p y y y y h l l k y y 1 1 1 y y y u l P *.x.H.^.{.|.|.*.f l m l a a ",
"y y y y y y 1 1 1 1 u.|.|.i.z y 1 y y p l l z l a P B._.a.p y y y y y k k l a y 1 1 1 1 y u p p p r r p a N i.|.}.*.a l l a p a ",
"y y y y y y 1 1 1 > 6.|.}.@.1 1 y y y y k l l l l l x i.).s.y 1 1 y 1 p k k v v L y 1 y p p p p p p u p p r &.}.|.6.g l a y p p ",
"y y y y y y p g 1 1 6.|.}.@.1 1 1 1 y y a k l l l l z l 6.(.u.L ~ @.6.x.A.H.E.!./.a.p y p a p p p p p p p r X.{.|.u.a g y y y p ",
"1 1 y 1 y 1 y y 1 1 6.|.}.@.1 1 y 1 1 y a k l l l l l L 1.~.}.(././.Q.Y.H.B.h.6.s.).v.a y p p p p p p p p y [ [.|.u.p y 1 y y y ",
"1 1 1 y 1 p p 1 1 1 6.|.}.@.1 1 1 1 1 1 y k k k k U v.!./.D.P.(.@.L x k k d a a y 6._.b.f y p p p p p p p y [ [.|.6.1 1 1 1 y p ",
"1 1 1 1 p U x 1 y 1 6.|.}.@.1 y 1 1 1 1 1 k d v i.~.Q.h.U y L !.s.> 1 1 p k k k k 1 *./.b.f r p p p p p p y [ '.|.6.> 1 1 y y y ",
", 1 1 1 y p 1 1 y 1 6.|.}.@.> 1 1 1 1 > , p I S.(.x.L a p 1 1 u.~.L > 1 1 k k k k p > s.|.b.f y a a p p y y [ '.|.6.1 y y y y y ",
"1 , 1 1 1 1 1 1 1 > 6.|.}.@.1 1 1 1 1 1 > ~ E.}.3.d d k k 1 > v E.h.> 1 1 y k k k p ..!.P./.B.z p p p p p y [ '.|.8.y y y y y y ",
", 1 , > 1 1 1 1 1 > 6.|.}.@.> 1 y 1 1 1 I E.Y.!.B.k d k k 1 > > i.E.v > 1 1 p k k L Y.D.x @.(.S.z y p y p y [ '.|.8.y y p y y p ",
"> > > > > 1 1 > 1 > 6.|.}.@.> 1 1 1 1 v U.P.L 1.).@.p k k 1 > > L /.*.> 1 1 p k d 6.(.U > 1 ..!.S.m y y y y [ [.|.s.y p p p p a ",
": 3 3 > > > , > , > 6.|.}.@.> 1 1 1 y B.!.I 3 x L.D.k k g 3 > > 1 H.V.1 1 1 1 k k V.H.k k x k @.(.S.z y y y P ).|.x.y p p y y y ",
"< : > > > > , > , > 6.|.}.@.> 1 1 > *.).%.> p 3 6./.I 3 9 3 : : : u.T.x > 1 1 y x P.n.k b.Q.E.Q.H.~.S.N y 1 L (.|.x.1 y y y y y ",
": : : > 3 > , 1 , : 6.|.}.@.> , , x Y.B.1 > 3 3 ~ (.%.3 9 3 > : : o./.I > 1 1 1 v E.s.p 1._.|./.[ [ ~.J.L 1 L (.|.x.1 y y y y y ",
": : > > > > > , > > 6.|.}.@.> > p 6.(.I > > 3 3 F !.w.3 k 9 3 > : I /.+.> 1 1 1 v E.u.p k ~ *.I 1 > ..).b.y L (.|.x.1 a a 1 y y ",
": : : > : : : , , : @.}.}.@.: , k P.V.> > 3 3 3 v !.w.3 k k 3 : : v ~.1.> y , 1 x E.s.p k k > 1 1 1 I /.3.> L ).|.h.1 y y 1 y p ",
": : : : : : : : : : @.}.}.@.: > ~ (.+.: : > : 3 I (.%.3 3 9 3 > : k E.6.: , > > 3 P.b.g x k p 1 1 1 s.Q.v 1 ~ _.|.u.1 1 1 1 1 1 ",
": : : : : : : : > : ( {.|.1.: : u.E.k : : : : < 4./.I 3 3 3 3 : : k E.6.: > > > 1 P.c.3 k k x 1 > x E.x.1 1 | [.|.6.> 1 1 1 1 1 ",
": : : : : : : : : : I _.|.u.: , S.A.: : > : : 9 P.S.9 3 6 9 3 3 : v /.%.: : > > 3 P.N.3 k k x p > %.(.~ > > @.}.}.@.> 1 1 1 1 1 ",
": : : : : : : : : : v /.|.v.: k E.u.: : : : : 1.).+.3 9 6 6 6 3 : ! (.( : : : : < S.A.3 p k k k p S.H.p 1 > 6.|.[.~ : > > > > > ",
": : : : : : : : : : k E.|.S.3 v /.1.: : : : F !.v.9 6 6 9 6 9 6 : 1./.F : : : : 3 H.Z.k L I v 3 ~ (.-.> , > c.|.(.F : : > > > , ",
": : : : : : : : : : 3 H.|.E.9 3 P.Z.3 : : : 9 %.c 6 6 6 3 3 9 6 3 V.H.3 : : : : 3 P.Q.U././.Y.p.B.E.x > > 1 S.|.E.k : : : : > > ",
": : : : : : : : : : : h.|.).F $ #.).+.: : : : & < 6 6 6 6 3 6 2 H ~.w.: : : : : < L.}.N.@.%.b.~.}.h.> , , x E.|.S., > : : : : : ",
"< : : : : : : : : : & >.|.}.+.$ < S.P.9 : : : : : 2 3 2 3 2 3 2 f.~.F : : : : : 3 U.C.< : : 3 I h.~ 3 , : ~ '.|.p.: , , : : : : ",
"< : : : : : : : : : : I _.|.g.& & R (.4.: : < : : 2 6 3 6 2 2 I ~.p.: : : < < : q E.4.: : : 3 6 9 k 6 , : 6.|.}.+.: > : : : : : ",
": : : : : : : : : : : 9 Y.|.P.2 & & k.E.c : : : : < 6 2 2 2 q S.U.c : : : : : : H /.O.: : < : 6 9 9 k 3 > A.|./.v : > : : : : : ",
": : : : : : : < : : : : v.|._.K & & D !.g.& : : : : 2 2 2 q N./.( 2 : & : : : & #.~.F : : 3 : < 3 6 6 6 v !.|.S.3 : : : : : : : ",
"& : : : : : : : : : : & +.{.|.w.$ & & 9./.K & : : : < 2 c B.(.$.2 2 < & & & & & k.L.< : 3 I %.6.0.%.! k 1.}.|.4.: : : : : : : : ",
"& & & : : : : : : : & & q E.|.L.2 & & 9 U.C.& & & & < _ I.W.+.2 2 2 2 & & & & 8 U.p.9 6.P./.~.E.E./.(.L.E.|.(.F : : : : : : : : ",
"& & & & & : : : : & & & & k.|.[.( $ & $ $.(.( @ < ! C.(.S.K 2 2 2 2 2 < & & & ! (.h.I.~.N.O.c 9 k H $.H.|.|.Z.< : : : : : : : : ",
"& & & < < & & : & & : & $ ! _.|.N.& & & ; F.P.9.H.(.L.$.9 < 2 2 2 2 2 2 & & & v.|._.C.H : & : : : : < k.|.}.$.: : & : : : : & : ",
"& & & & & & & & & & & & & = S.|.).G + & $ ! _._.C.` 2 & 2 2 2 2 2 2 2 2 = & D /.[.5.< & : : : : : : H /.|.U.c : : & & : : < 2 2 ",
"& & & & & & & & & & & & & $ ` {.|.N.& & & & z.E.q + & & < 2 2 2 2 2 2 2 < & v.[.1.& & & & : : : : & g.|.|.5.2 2 & & : < 2 6 9 2 ",
"& & & & & & & & & & & & & & 2 G.|.).^ $ & $ D !.p.& & & & 2 5 2 2 5 2 5 2 +.).q.& & & & & & & & & K /.|.U.c 2 2 2 2 2 2 2 2 2 2 ",
"& & & & & & & & & & & & & & $ _ [.|.F.; # % % w.~.D & & & 2 5 5 5 5 5 2 T W.C.; & & & & & & & & < C.|.{.,.2 9 9 2 2 2 6 2 2 2 2 ",
"& & & & & & & & & & & & & & % = N.|.}.5.# % % 8 Y.N.& & & & 5 5 5 5 ; K I.L.q $ < & & & & & & & >.{.|.S.2 2 c 9 2 2 2 2 2 2 < & ",
"% % & & & & % & & & & & & % % # D !.|./.K # % $ $.(.! & & & 5 5 ; 5 ` E.L.G = & & & & & & & & G !.|.(.K & ; q 8 2 2 < = & & & & ",
"% % & & % & & & & & % % % % % % $ ,.}.|.H.8 % & ; H.G.; $ $ = 8 ^ N.(.Z.D ; 5 = & & & & & & 8 S.|.}.w.& & & 2 5 6 2 = & & & & & ",
"% = & & % & & % % % % % % % % % # ; C.|.|.m.; & $ ^ (.9.^ $.f.L.(.U.,.8 ; ; 5 ; & % % % & ; k.|.|.Z.2 & & & ; 5 5 5 2 & & & & & ",
"% % & & % = % % % % % % % % % # # # e L.|.}.e.= % % z.)./.!.I.N.$.e ; ; ; ; ; ; = % % % % w.{.|.Y.C % & & & ; 5 5 5 5 ; & & & & ",
"% % % & % % % % % % % % % # % # # # # J !.|.{.<.% # 5 T J e ; % = ; ; ; ; ; ; ; = # % % ,.[.|./.W $ & & & & % = 5 5 5 5 = % & & ",
"% % % % % % % % % % # % % # % % # # % # / (.|.'.5.% # # # # # # = ; ; ; ; ; ; ; ; % = <.'.|.(.` $ % % % = % % % ; 5 4 ; ; % % % ",
"% % % % % % % % % % # # # # X X X % X # # ` (.|.{.r.- # % # # # % ; 4 ; ; ; ; ; = 4 r.{.|.(.` # % % % % % % % % % ; ; ; 5 = % % ",
"% % % % % % % % # # # X o X X X X X X X X X ` (.|.}.N.0 X # # # # % ; - - - ; = V C.}.|.(.` # % % % # % % % # # # = ; ; ; ; % # ",
"% % % % % % % % % % # # X X X X X X X X % # # ^ E.|.|.I.Q X X X X X = - - = - ) Y.|.|.E.Q # # # # # # % % % # # % % ; ; ; ; = # ",
"% % % % % % % # % # # # # X X X o X X X X X # X S G.|.|.).e.4 X X X % = * w t.).|.|.K.Y X # # # # # X # % % # # % % = ; ; ; ; % ",
"% % % % % ; % % X X X X X X X X X X X X X X X X X 4 g.[.|.|.I.' -     4 :.Y.|.|.[.j.w = % X # X X X X X X X X X X X X = ; ; ; = ",
"% % % % % X % o o X X X X X X - 7 X X X X X X X X . X ) U.|.|.{.F.) ' G.{.|.|.Y.' - - - - o X X X X X X X X X X X X X % ; ; ; - ",
"% % % % X o o X X X X X X X X O * X X X X X X X X X X   7 r./.|.|.{.{.|.|./.r.w * - - - - * X X X X X X X X X X X # # % = ; ; ; ",
"% % % X X o o o X * - X X o X X X X X X X X X X X X X X X X A l.(.|.|.(.l.J * * - - - - - - o . . . . X X X X X X X # X % - - ; ",
"% o X X X X X X X * o X X o X X X X o o X X X X X X X X X X   X S j.y.S X X * - - - * * - - * . . . . . X X X X X X X X X * - - ",
"o X X X X X X X X X X X X X X X X X o o X X X X X X X X X X X X X X X . X X O - - - - - - - - O .   . X X X X X X X X X X X - - ",
"o o X X X X X X X X X X X X X X X X X X X . . X X X X X X X X X X X X X X X X * - - - - O O - - o . . X X X X X X X X X X X * - ",
"X o X X X o % X X X X X . . . . . X X X . . . . X X X X X X X . . X X X X X X o - - - * O - O - * X X X X X X X X X X X X X o = "
};
