/* XPM */
static char *_661fa240c904ffdb2bfa6bef14060cc2S5jHW6B4WwtP9OC[] = {
/* columns rows colors chars-per-pixel */
"64 64 177 2 ",
"   c #322717",
".  c #352917",
"X  c #3E2E16",
"o  c #302718",
"O  c #352A19",
"+  c #3B2D19",
"@  c #3F3016",
"#  c #3F301B",
"$  c #3D3221",
"%  c #402F13",
"&  c #402F19",
"*  c #433216",
"=  c #4B3616",
"-  c #4F3816",
";  c #433319",
":  c #493719",
">  c #4D3919",
",  c #543C16",
"<  c #593F16",
"1  c #533C19",
"2  c #433523",
"3  c #4C3D24",
"4  c #443A2B",
"5  c #4B3D2A",
"6  c #503F23",
"7  c #574017",
"8  c #5C4116",
"9  c #57401C",
"0  c #5C4219",
"q  c #614516",
"w  c #624519",
"e  c #64491C",
"r  c #684D1F",
"t  c #554224",
"y  c #5B4523",
"u  c #53442A",
"i  c #5A4729",
"p  c #57482D",
"a  c #5D4A2C",
"s  c #554633",
"d  c #574832",
"f  c #5B4C33",
"g  c #5B4E3B",
"h  c #5E513C",
"j  c #624B24",
"k  c #614C2A",
"l  c #6C5125",
"z  c #66512D",
"x  c #6B532A",
"c  c #70572D",
"v  c #73582D",
"b  c #624F31",
"n  c #635135",
"m  c #6A5532",
"M  c #6F5935",
"N  c #65553C",
"B  c #6A5639",
"V  c #6D5A3C",
"C  c #725B35",
"Z  c #725D39",
"A  c #79623E",
"S  c #5F5241",
"D  c #645641",
"F  c #665840",
"G  c #6C5C43",
"H  c #645A4C",
"J  c #695D4A",
"K  c #715E44",
"L  c #6A5F50",
"P  c #6F6046",
"I  c #6E614E",
"U  c #746245",
"Y  c #796544",
"T  c #73654C",
"R  c #7B694E",
"E  c #6D6253",
"W  c #716552",
"Q  c #766A55",
"!  c #7C6C53",
"~  c #756A5A",
"^  c #7A6E5C",
"/  c #7F715A",
"(  c #796F62",
")  c #7C7262",
"_  c #826C46",
"`  c #86704E",
"'  c #857053",
"]  c #8A7555",
"[  c #84735B",
"{  c #8B7A5E",
"}  c #907C5D",
"|  c #827663",
" . c #857A67",
".. c #8B7B63",
"X. c #857B6C",
"o. c #8B7E6B",
"O. c #877F74",
"+. c #8D826E",
"@. c #938165",
"#. c #97876E",
"$. c #98866B",
"%. c #9A896D",
"&. c #8D8373",
"*. c #8F867A",
"=. c #938672",
"-. c #968874",
";. c #9B8C75",
":. c #90877B",
">. c #948B7C",
",. c #9B8E7A",
"<. c #9F9077",
"1. c #9B907E",
"2. c #A1937C",
"3. c #A5967E",
"4. c #968E83",
"5. c #9C9384",
"6. c #9C958B",
"7. c #A19583",
"8. c #A49986",
"9. c #AA9A82",
"0. c #A39B8D",
"q. c #AA9E8B",
"w. c #A49C92",
"e. c #ADA18E",
"r. c #B0A28C",
"t. c #A7A097",
"y. c #ABA294",
"u. c #A6A098",
"i. c #AEA69B",
"p. c #AFA89E",
"a. c #B2A593",
"s. c #B5A997",
"d. c #B4AA9C",
"f. c #BDB29F",
"g. c #AEA9A2",
"h. c #B4ADA3",
"j. c #B9AFA1",
"k. c #B7B1A7",
"l. c #BBB2A4",
"z. c #BCB5AB",
"x. c #BFBAB2",
"c. c #C2BAAD",
"v. c #C3BDB2",
"b. c #C6C0B6",
"n. c #CAC2B5",
"m. c #C6C1BA",
"M. c #CCC6BC",
"N. c #CEC8BE",
"B. c #CBC7C1",
"V. c #CDC9C2",
"C. c #D2CCC3",
"Z. c #D2CEC9",
"A. c #D6D1CB",
"S. c #DAD5CD",
"D. c #DDD8CF",
"F. c #D9D6D0",
"G. c #DEDAD3",
"H. c #DFDCD8",
"J. c #E2DDD6",
"K. c #E1DED9",
"L. c #E4E0D9",
"P. c #E5E2DD",
"I. c #E8E4DE",
"U. c #E7E4E1",
"Y. c #E9E6E2",
"T. c #EBE9E5",
"R. c #EDEAE4",
"E. c #EEECEA",
"W. c #F1EFEB",
"Q. c #F0EFED",
"!. c #F3F1EF",
"~. c #F5F4F3",
"^. c #F8F7F5",
"/. c #F9F8F6",
"(. c #FBFBFA",
"). c #FDFDFC",
"_. c white",
/* pixels */
"8 8 w 8 0 8 0 8 8 8 8 8 8 8 8 8 8 8 8 8 8 8 w w e r w q q q q q q q q q q q q q q q q q r w q w q 8 8 8 8 8 q w 8 8 8 8 8 q 8 8 ",
"8 8 8 0 8 8 8 8 8 8 8 8 < 8 8 0 8 8 8 8 8 8 q w w v r 8 8 8 8 8 8 8 q q e q q q q q e e q q q w 8 8 8 8 8 8 q 8 8 8 8 8 8 8 8 8 ",
"8 8 8 0 8 8 0 8 0 8 < < < 8 8 0 8 8 8 8 r r 8 q q q q 8 8 < < 8 < 8 q 8 q q q q q l l q q q q 8 8 8 8 8 8 8 8 q 8 8 8 8 8 8 8 8 ",
"8 8 0 8 8 8 8 8 8 < 8 8 8 8 8 0 8 8 8 8 j r 8 8 8 8 w x ` %.9.r.3.@._ x q 8 q q q r r q q q 8 8 8 < 8 8 8 8 8 8 8 8 8 8 8 w 8 8 ",
"8 0 0 0 0 8 8 8 8 < < < < 8 8 0 < < 8 8 8 8 8 8 c $.c.L.^._._._._._.~.J.f.} l 8 q q q q 8 8 8 8 8 8 8 8 8 8 0 8 8 8 8 8 8 w 8 8 ",
"0 8 8 8 8 8 8 8 0 8 8 < < < < < < < < < 8 < C q.J._._._._.^.W.R.W./._._._.(.S.;.x 8 8 8 8 8 8 8 8 8 8 8 8 8 8 8 8 8 8 8 8 8 8 8 ",
"0 0 0 < 8 8 8 8 < < < < 0 < < < < < < , j ;.L._._._.I.c.;.] A C A ] 2.n.R._._._.S.@.w 8 8 8 8 8 8 8 8 8 8 8 8 8 8 8 0 8 8 8 8 8 ",
"0 < 0 0 < 8 8 8 8 < < < 8 < < < 0 , < Y n._._.(.C.%.C 0 8 8 8 8 8 8 8 w Z 3.D._._.^.l.C < 8 8 8 8 8 < 8 8 8 8 8 8 8 0 w 0 8 8 8 ",
"< < 0 0 8 8 8 < < 0 < , < < , < 0 C e.R._._.G.;.l 8 8 e 8 8 8 8 0 0 8 8 8 8 x 3.Y._._.L.<.x < , < < , < < 0 8 8 8 8 8 0 8 8 8 8 ",
"< < < < < < < < 0 a.q.R m m Y @.l.Y._._.~.d.m e e 8 0 0 8 8 8 8 8 8 8 8 8 8 8 < A c.(._._.K.s.{ U M M ' a.$.< 8 8 8 8 0 0 8 8 8 ",
"< < 0 0 < < < < 0 N._.~.R.T.!._._._.(.C.{ 0 < 8 8 8 8 8 8 8 8 8 8 8 8 8 < < 8 < < j #.S._._._.(.!.T.R.^._.a.< 8 8 8 8 8 8 8 < 8 ",
", , , < < < , < 0 N._._._._._.(.Y.v...j < < < < < < < 0 8 8 8 8 8 8 < < < 8 < < < < , k #.b.R.(._._._._._.l.< < 8 8 0 0 < < 8 0 ",
"1 , , , < < < < 9 N._.P.q.q.2.[ m 0 , Y s.d.R 0 < < 7 7 0 8 < < < < < < < < < < < < < < , 0 Z ..2.q.e.R._.l.< < < < < 8 8 < 8 0 ",
"1 1 , , < < < , 9 N._.N., , 1 1 , < R P.C.C.Y.[ , < < < < < < < < < < < < , < 7 < < < 0 0 < , , , , j D._.l.< 0 < < < < 8 < 8 0 ",
", , , 1 1 1 1 1 9 N._.N., 1 , , 1 < l.n.y 0 c.c., , , , , , < < < < < < < , < < < < < < < < < < < < j G._.l.< < < < < < < < < < ",
"1 9 , 1 1 1 1 1 9 N._.N., 1 , , , , n.d., - e.K.8.l.l.q...m , , < < < , 1 < < < < 7 k 0 < < < < < < j G._.l.< , , < < , < < < < ",
"1 1 1 1 1 1 1 1 , N._.N., 1 1 , 1 - ;.Y.;.=.Y.!.A.v.c.C.I.L.s.V 1 1 , 1 1 , < < < y V , < < < < < < j G._.l.< , 1 1 1 , , < < < ",
"1 1 1 1 1 1 - 1 , N._.N.1 1 1 1 1 - 9 q.(.~.d.U y , 1 9 B ;.S.L.,.a 1 1 1 1 , , , < 1 , < < < < < < j G._.l.< 1 1 1 , , < < < < ",
"1 1 - - 1 - 1 1 9 N._.N.1 1 1 1 1 1 - ,.E.=.1 - - 1 1 1 - - a 8.Y.C.[ 9 1 < 1 1 1 < < < < , < < < < j G._.a., 1 1 1 , < < < , , ",
"1 1 - - 1 1 1 1 1 N._.M., - 1 1 1 - R Y.-.1 b V B k , - - - - - K l.R.b.{ i , , 1 1 < < , < , , , , j D._.q., < < 1 1 , , , 1 1 ",
"1 1 1 - - 1 - 1 1 M._.N.1 1 1 1 1 y n.N.,.N.P.I.Y.K.v...t V y.d.! 1 ! v.Y.A.7.T k 9 y k < , 1 1 , , j G._.q.1 < , 1 1 1 1 1 1 1 ",
"1 - 1 - 1 1 - - 1 z._.N.1 - 1 1 1 [ ~.R.P.d...R ! =.c.Y.C.J._._.W.R = 1 R y.S.Y.G.C.C.j., 1 1 1 , 1 z P._.q.1 , , , 1 1 1 1 1 1 ",
"- - - - - - - - - l._.N.1 - 1 1 1 l._.N.G 1 - - - - 1 K z.~._._._.q.- 1 t - k ..v._._.l., , 1 1 , 1 m T._.q.- 1 , , 1 1 1 1 1 - ",
"- - - 1 - - - - - l._.S.i - 1 - b P.G.n - - - - 1 - - - 1 R s.J./.R.n.z.l.c.C.K.P.C.!.8.- 1 1 1 , 1 m T._.q.1 , , 1 1 1 1 1 1 - ",
"- - - 1 - = = - - l._.F.i - 1 - ! ~.;.- 1 - - - - - - - - - - a ! ,.s.z.c.l.q.o.B [ Y.R - 1 1 1 1 1 m T._.7.- 1 - 1 1 1 - - - - ",
"- - - = - = - - = s._.F.i - - - y.E.B - 1 - - - - - - - - - 1 - - - - 1 a = = = B A.z.1 1 1 1 1 , , B R._.=.- 1 - 1 1 1 - - - - ",
"- - : > > : - > = 0._.G.i - - a H.S.t - 1 - - - - - - - - - = = = - - 1 t a P 7.L.C.n = - - - 1 1 - U !._.=.- 1 - - - - - - 1 - ",
"- = = : = = = = = 0._.Y.b - - Q (.C.1 - - - - - - - - - - b [ ,.y.l.v.C.S.I.~.P.8.i = - - 1 - - 1 - U !._.+.- 1 - - - - - - - - ",
"> > = = = = = > = 1._.T.b = = 1._.G.i - - - - = - = = G l.K.U.S.M.z.v.V.S.Y.~.I.i.Q 1 = - - - - - - R ~._.[ - - 1 1 - = - - - - ",
": = = = = = = : = =._.E.B = - z.G.Y.T = > - t > = = / P.V.+.N t - - - - t f T 1.N.T.n.[ 1 - - - - = / (.(.! - 1 1 1 - - = - - - ",
"= = * : * = = = = o._.!.P = 1 V.y.C.y.= = = = = = N K.s.t * = = - - = = = = = = 1 T l.T.l.n - 1 - = | _.~.T - - - - - = = = - - ",
"* : * * : * = : * / _./.Q * t S.=.=.P.G * = = - = 5.G.i * = = = > - = = = = = > = * - / F.S.U - - = =._.Q.G = = = - - - = = = = ",
": : * > > = = : ; T ~._.[ = t S.=.t N.b.t * = : - c.d.; * * * * = = = = = = = = = = = * f v.K.K = * 1._.T.n = = = = > = = = = = ",
": * * : : * * * ; G Q._.+.* > C.5.* G K.z.u ; * : b.y.* * * * * * * = = = > = = = = = = * u v.A.a * 0._.K.p * = = = > = = = = = ",
": : : ; : : : * ; f Y._.5.* : z.l.* ; T K.b.N * * d.v.* * * ; ; * * * : : > : = = = = = = * b S.d.> h._.A.6 * = = = = > = = = = ",
": : : : : * * * * u G._.y.* ; >.S.u * * J A.H.&.3 o.G.p ; * * ; * * * : = = = = = = = = = = * / T.! b._.m.: * * = = = = = = = = ",
"* : : : * : ; : * : V._.v.: * G U.Q * * ; p 0.U.C.0.E. .X * ; ; ; ; * * * * > : = = = = - = = > v.m.G._.h.* ; ; * = = = : > : = ",
"; : * : : * ; : ; ; h._.S.3 * : m.h.: : * * * F i.P._.F.Q ; % ; ; ; * * * * = = = = = = = = = ; | ~.(._.5.% ; * ; * * = : = = * ",
"; ; ; : ; ; : ; * * 5._.R.h * * | U.F * * * * * * f +.m.T.v.I ; * * : : ; ; * * * * : = : = = ; f P._.(.| % * * * ; ; * = * * * ",
"; ; ; ; ; ; ; * * % ^ (.(.) X * 3 Z.y.* ; : ; ; ; * % : W v.T.5.: * ; : * ; * : : : : * * * : : : n._.E.N % * * * ; * : : ; ; ; ",
"* * * * ; ; ; ; * * d P._.h.; ; % *.H.d * * ; ; ; ; * * X : &.U.h.3 * * * * * : : : : * * * : : 3 V._.C.3 * * * * * * ; * * * * ",
"@ * * ; ; ; ; ; * * ; k._.U.g * * f P.^ % * ; ; ; * * * * * % W P.y.: * ; * * * ; : : ; : : : * T ~._.5.% ; * * ; * * : * * * * ",
"; ; X ; ; ; ; ; X X X ~ ^._.4.* * 3 F.*.X ; ; ; ; ; * ; ; * * X ) T.~ X ; * ; ; ; ; ; ; : * ; : h._.E.F X * * * * * * ; : ; * * ",
"; ; ; X 3 ; ; ; * X ; 5 V._.G.d X s K. .* ; ; ; ; ; ; : : * ; ; ; h.m.; X @ * * ; ; ; ; ; ; * J E._.h.; % * * * @ * * * ; ; * * ",
"# # X @ ; ; ; ; @ X ; X | (._.0.X &.P.h X ; ; ; ; ; ; ; * ; ; ; X W U.D X * * * * * * * ; * ; z._.E.J X ; X X X X X X * * * * * ",
"X # # X X X & X @ X X X 3 m._.E.:.H.0.; ; ; ; ; ; ; * ; ; ; : ; * 5 F.&.X ; * * * * * * * X o.(._.h.; X X X * X @ * * * * * * * ",
"X ; ; X X X X @ @ X @ @ X I Q._.(.m.3 X ; ; @ ; ; ; ; ; ; ; ; ; ; ; x.p.X X X X X * * * X J U._.K.g X X X X X * X X X * * ; * * ",
"X X ; X X X X X X X X # # ; 5._._.M.u X ; * X X ; ; ; ; ; ; ; * * X y.m.; X X ; @ * ; X h S._.~.| X @ @ * X @ @ @ X * ; * ; * * ",
"X X X X X X X X X X X X X X 2 k._._.v.s X * ; ; * * * ; ; ; @ @ & X w.V.; X ; X X @ X D A._._.6.# X X X X X ; ; X X ; ; ; ; * X ",
"X X X X X X X X X X X X X X X s V._._.Z.J X ; ; ; # X X ; # # # X X w.B.; X * * * ; ^ H._._.w.2 X X X X X X X X X X # X ; ; X X ",
"X X X + + + X X X X X # X + X ; h z._._.T.:.4 + X X X X X X # X X X w.m.; X X X u 0.!._.(.w.2 + X X X X X + X X X X X X X X @ X ",
"+ + + + + + + X X X X X X X X X + 4 w.~._._.m.E # X X X X X X X X ; z.h.X X 2 ) A._._.E.*.2 X X X X + X + + X X X X X X X X X X ",
"+ + + + + + + + X # # + X X X X X + # ( F._._.Q.i.g + + X X X X X 5 F.>.X J z.~._._.V.E + X X + + + O O O + + O + X X X X X X X ",
"+ + O + + + + + + + + + + + + X X X X + s t.E._._.P.4.5 + X X X + J Y.X.w.E._._.U.4.5 + X + + + + O O O O O O O O + X X X X X X ",
"+ + O + + + O + + + + + + 2 2 + + X X + X X L x.~._._.Z.~ X X X + 0.^.U._._.!.h.S X + X X + + + + O . . . O O O O + + + X + + + ",
"O O O O + O O + O O + + + 2 + + + + + + + + + 2 ( Z._._.~.w.5 + g K._._.(.m.E # X X # + + + O O O O . + + + O O O O O O + O + + ",
"+ 2 O O O O O O O O O + O O O O O + + + + + O + + 5 4.T._._.v.) Z._._.K.O.2 + X + X 2 + + + O O O O O O O O O . . . O O O O O O ",
"O + O O O O O O O O O O + O O + # + O O O O O + + O O H B._._.(._._.z.g O O + X X + O + + + O O O O O O 4 4 O . . O O O O O O O ",
"O O O O O O O O O O O O O O + O + O O O O O O O O + O . 5 g._._.~.6.2 O + + + + + O + O O O + + O O O O O O     O O . . O O   . ",
"O O O O O O O O O O O O O O O O O O O O O O O O O O O O O 2 u.~.4.+ . + + + + O O O O + O O $ $ O O + O O O O O O O O . O O O . ",
"O O O O O O O O O O O O O O O O O O O O O O O O O O O + # O 2 E $ O + + + + + + O O O O O O + O O O O O O O O + O O O O O O O O ",
"O O O O O O O O O O O O O O O O O O $ + O O O O O O O O + O O . O O O O O + O O O O O O O O O O O       O O O + O O O O O O O O ",
"O O O O O O O O O O O O O     O O O O O O O O O O O O O O O O O O O O O O O O O O O O O O O O O     O O O   O O O   O O O O O O ",
"O O O O O O O O O O O O O O   O O O O O O O O O O O O O O O O O O O O O O O O O O O + O O O O O o o O O o o O O o   o o o O O O "
};
