/* XPM */
static char *_795cdee9505422ccae3db85a0389972jpa8JRWploOR9H3R[] = {
/* columns rows colors chars-per-pixel */
"64 64 157 2 ",
"   c #111F32",
".  c #101F38",
"X  c #0F233D",
"o  c #132134",
"O  c #182537",
"+  c #15243C",
"@  c #19273A",
"#  c #1E2B3D",
"$  c #202D3E",
"%  c #152741",
"&  c #162944",
"*  c #1A2B44",
"=  c #172C4A",
"-  c #192D4C",
";  c #17304F",
":  c #1D314D",
">  c #172F51",
",  c #1B2F50",
"<  c #173050",
"1  c #1A3253",
"2  c #1C3558",
"3  c #202E43",
"4  c #213046",
"5  c #293445",
"6  c #22334B",
"7  c #28374D",
"8  c #2D394A",
"9  c #333F4F",
"0  c #223652",
"q  c #253955",
"w  c #2B3B54",
"e  c #233758",
"r  c #243A59",
"t  c #2A3D59",
"y  c #313F52",
"u  c #2E415C",
"i  c #334155",
"p  c #384454",
"a  c #33435C",
"s  c #3A475B",
"d  c #3D495C",
"f  c #2E4360",
"g  c #344762",
"h  c #364863",
"j  c #3B4B64",
"k  c #304768",
"l  c #3C4E68",
"z  c #3F5064",
"x  c #3F5068",
"c  c #434F5F",
"v  c #414E63",
"b  c #445165",
"n  c #495466",
"m  c #4F5967",
"M  c #44556B",
"N  c #4B576B",
"B  c #47586F",
"V  c #4B596E",
"C  c #525D6F",
"Z  c #4B5B72",
"A  c #525E71",
"S  c #546275",
"D  c #5C6676",
"F  c #5E6977",
"G  c #55647B",
"H  c #59677B",
"J  c #5C697C",
"K  c #626D7D",
"L  c #67717F",
"P  c #69727E",
"I  c #5D6C81",
"U  c #606F82",
"Y  c #657184",
"T  c #6A7483",
"R  c #6F7884",
"E  c #697689",
"W  c #6C798B",
"Q  c #707A87",
"!  c #737D8D",
"~  c #727F91",
"^  c #77808E",
"/  c #79818D",
"(  c #748091",
")  c #7B8594",
"_  c #7F8896",
"`  c #7B8799",
"'  c #7E899A",
"]  c #848B95",
"[  c #838C9A",
"{  c #87909E",
"}  c #89929E",
"|  c #8691A2",
" . c #8C95A3",
".. c #8A95A4",
"X. c #8F99A7",
"o. c #9097A2",
"O. c #939AA5",
"+. c #939CAB",
"@. c #959EAA",
"#. c #97A0AF",
"$. c #9BA2AD",
"%. c #9AA3B1",
"&. c #9BA4B1",
"*. c #9DA5B1",
"=. c #A2A7AF",
"-. c #A0A7B2",
";. c #A0A9B6",
":. c #A5ACB5",
">. c #A3ACB9",
",. c #A4ACB8",
"<. c #A9AFB8",
"1. c #ABB2BC",
"2. c #B0B5BC",
"3. c #AEB6C0",
"4. c #B3B9C4",
"5. c #B5BBC4",
"6. c #B4BAC5",
"7. c #B6BDC7",
"8. c #B9BDC5",
"9. c #B8BFC8",
"0. c #BBC0C9",
"q. c #BDC3CB",
"w. c #BCC2CC",
"e. c #C1C6CD",
"r. c #C2C7CF",
"t. c #C4C8CF",
"y. c #C2C8D0",
"u. c #C6CAD1",
"i. c #C7CCD4",
"p. c #CACED3",
"a. c #CDD0D6",
"s. c #CED2D9",
"d. c #D0D5DB",
"f. c #D3D7DD",
"g. c #D5D9DD",
"h. c #D9DBDF",
"j. c #D7DBE0",
"k. c #DBDEE2",
"l. c #DCDFE4",
"z. c #DEE1E5",
"x. c #DEE1E6",
"c. c #E1E3E6",
"v. c #E4E6E9",
"b. c #E6E9EB",
"n. c #E8EAED",
"m. c #EBECEF",
"M. c #EBEDF0",
"N. c #EDEEF1",
"B. c #EFF1F3",
"V. c #F0F1F3",
"C. c #F0F2F4",
"Z. c #F2F3F4",
"A. c #F4F5F6",
"S. c #F6F7F8",
"D. c #F7F8F9",
"F. c #F9FAFB",
"G. c white",
/* pixels */
"< < < 1 < e e < < - - : - - - - < - - - - - - - - - - - - e r e r r r r e < < > - ; ; < < 1 1 < < 2 r e r e 2 1 2 2 2 1 1 < 1 1 ",
"< < < < 1 2 2 < < - - - - - - < < - - - - - - - - - - - - e r e r r r r e , - - - - > < < 1 1 < < 2 e e r e 2 1 1 2 2 2 1 1 2 2 ",
"< < < 1 2 1 < < < - - - - - - < , - - - - - - - - - - : - 1 e r r r r r e - - - - - < < < 1 1 > < < e r r r 1 < 1 2 1 2 2 1 1 2 ",
"< < 2 k < < < - - - - - - - - - , , - - - - < - - - : < - e e e e r r r e : - - - - < < < 1 1 < > < 2 e r e 2 < 1 1 2 1 1 1 < > ",
"; > 1 2 < < ; - - - = - - - - - - - - < - - 1 - - : - - - 1 e H | u e r e - - - - - < < 1 1 < < < < 2 r r r e < < 1 1 2 1 < < < ",
"< < < < ; - - - - - - - - - - < - - - - - - - : - - - = = 1 U l.G.>.h e e : - - : - - < < < < < < < 2 r r e 2 < < 1 1 1 1 1 < < ",
"; ; < ; < < - - - - - - - - - - - - - - - - - - - - - = r | M.G.G.G.u.H e - - - - - - < < < < - < 2 < e r r e 1 1 < 2 1 < < < < ",
"< < - - < < ; - - - - - - : - - - - - - - - - - = = r I y.G.G.M.f.G.G.m.+.j - = - - - < > < ; - < 2 < e e r e 1 < < < 1 < < < 2 ",
"< , - - - - - - - - - - - - - - - - - - - - = 1 j ( r.S.G.G.s.I j #.V.G.G.v.&.G t - - - - - ; - < < < 2 e r r 2 ; < 2 1 < < < 1 ",
"- - - - - - - - - : r - - - - - - - 1 t l I | 7.v.G.G.G.x...j 0 e r I w.S.G.G.A.s.%.W Z u e < ; < < < 1 r u f e < < < < < < < < ",
"- - - - = = = = = Z i.6.,.,.,.,.,.3.r.f.n.F.G.G.G.F.f...j - 0 q 0 0 1 t Y 4.m.G.G.G.G.C.x.p.9.,.,.,.,.,.3.u.;.r < - < < < < - < ",
"- - - - = = = - 1 I G.G.G.G.G.G.G.G.G.G.G.G.B.d.;.U u = - - 0 0 1 0 0 0 1 0 b ' 0.v.F.G.G.G.G.G.G.G.G.G.G.G.y.r 1 - - - - - ; < ",
"- - = = = = = = = I F.G.k.j.v.l.d.s.w.,...W M t - - - = = - 0 M G a 0 : 0 - & & : g H ` &.6.u.d.g.v.x.f.N.G.u.t 0 - = - - - - < ",
"- = = = - - = = & W G.C.H t a u t r : - = = = = : - - - = - 0 ,.C.g.1.( N r & & = = = - - : e t t g g t 1.G.d.a 0 - = = - - - - ",
"- = = = : 1 = = & ~ G.B.M & = = - - = = = - = - : - = & & & S v.[ ' 7.x.v.i.+.j = = - - - - - - - = - = ,.G.f.a 0 : = = = - 1 : ",
"- - = = = = = - & ( G.V.M & = = = = = = = = = - = - u Z Y ( q.0.r - 0 j U +.x.,.- - = - - - - - - - - = ,.G.f.a 0 0 - = = - - - ",
"- - - h 0 = - - = ~ G.B.Z & = - = - t = = & - - = ( k.v.l.d.C.y.X.+.Y 0 : - Y v.M = - - - - - - : - - - ,.G.f.a 6 6 : = - - - - ",
"- = - u : = - - & ( G.B.M & = = - ' W & & & = = x x.@.M a q | G.F.d.Z 0 0 : r u.@.= - = - - - : - - - - ,.G.f.a 0 0 0 - - - - - ",
"& - - & = = = = & ( G.B.B & & 6 X.B.S & = = - : ,.i.s 0 0 : j k.1.b : 6 0 : & ( k.a & - - - : 1 : - - - ,.G.d.u 0 0 e 0 - - - = ",
"= = = - - = = = & ~ G.V.B & r ;.F.v.s & = = & I F.v.a.d.s.t.#.u.p.w 6 6 6 : & a g.' & = - - - - - - - - ,.G.d.t 0 0 r e : - - = ",
"& & & - - - - = & ! G.B.M u 4.g.9.a.0 & & & 6 *.1...) ^ (  .u.C.F.W : 7 6 6 - & X.s.t = - - - - - - = - ,.G.d.t : e r e e 1 - - ",
"& & & * - & = & % ! G.B.E w.d.M +.w.- & & & - q = % % % % % q Y c.r.w 6 0 6 - & b c.E & = - = - - - = - ,.G.d.t - e e r e 0 : - ",
"= & & & & & & & % ! G.F.n.t.l & ,.1.- & & & & & & & & & & & - : Y n.U : 0 0 - = - ,.w.: = : - = - - = - ,.G.d.t = : e e 0 0 : - ",
"& & & & = = = & % U F.G.7.a & - 7.1.= & & & & & & & & & & & = 6 q 7.7.q 0 0 - = & H b.N & : - - = - - - ,.G.u.0 = - : e 0 0 q 6 ",
"* & = & & & & & & H F.F.G % : : r.,.& & & & & & & & & & & & = 6 : U b.S : 0 : - & t d.| & = = = = - - - 1.G.w.: - - : : q 0 0 0 ",
"& & & & & & & = % H F.F.H & : - 4.,.& - & & & & & & & & & & = 6 6 w r.,.0 0 : & & & ;.f.t = = = = = - : w.G.w.: - : 1 - 0 q 0 0 ",
"& & & & & & & & & J F.F.H & - & ,.4.= & & & % & & & & & & & = 6 6 : ! x.b 6 : = = & ) D.J & = - & = - : w.G.q.: - - - - - 0 0 0 ",
"& & & & & & & & & H F.F.H % & & ..p.6 & & + & & & & & & & & & 6 6 6 j x.( : : - = & J G.1.- = = = - - : w.G.w.: = - - = - - 0 0 ",
"% % % & & & & & % M V.G.Y % & % E x.a % & % & & & & & & & & & : 6 6 7 8.:.6 : & & % Z S.v.j & & & & & 6 t.G.1.- & = - = = = - 6 ",
"% % % % & & & & % M B.G.! % & & b v.H % & & & & & % & & & & & : 6 6 - @.r.0 : & & & M m.F.( & * & & & q d.G.,.& & & & & & & = - ",
"& % % & & & & & % z M.G.! % & & 6 r.@.% & & & & & & % % & % % - 6 6 - [ p.w : * & & S l.t.7.: - & * & t d.G.*.& & & & & & & & & ",
"& & & % & & & * & s v.G.[ + & & % ) g.w + & & & % % % % % % & * 6 6 : ..u.q 6 * * % K g.) b.N & & & & u l.G...& & & & & & * * & ",
"& % & & & & & & & i c.G. .+ & & % a k.[ % % & & % % % % % % % = 6 6 6 4.1.6 6 * & % ) p.b v.,.= & = & a v.G.{ % & & & & * & & * ",
"& % & & & & & & % w d.G.$.% & & % % _ x.j + % % % % % % % % % * 6 : b x.! : 6 = % & -.1.6 w.C.J % & % H A.G.( % * * & & & & & & ",
"% & & & % & & % % 4 t.G.1.& % % % % 7 0.q.y + % % % % % % % % & : 6 $.d.a 6 6 * % 6 i.[ % @.G.k.J w H k.G.G.Y % & * * & & & & & ",
"% % & % % % & & % * 6.G.w.* + + % % % d a.w.a + % % % % & % % % : ( n.W 6 6 6 * + N c.N X ) k.1.v.g.v.g.G.D.S % * * & & & & & % ",
"% % % & & & & % % % -.G.d.7 + + + + & + j u.f.T 6 + + + + + + 7 [ b.} 7 6 6 6 : %  .p.w % Y g.a A ! A ) G.N.b % & & & & % % & & ",
"& % % % & & & % & + { G.v.i + % % % + & % w @.v.u.[ S v v C [ p.c.) 6 6 6 6 6 - w f.[ * % J x.i + % %  .G.c.a % & & & & % & & & ",
"& % % % % % & % & + T G.C.N + + + + + + % % * M @.d.c.c.c.c.d.O.v 6 6 6 6 6 6 : [ k.a % + H x.a % & * 1.G.p.6 & & % & & % & % % ",
"+ % % % % % % % % % N C.G.Q + + + + + + + & % + % 7 d N N d 6 + % 6 6 6 4 6 - b l._ & & + Y g.w % % 7 d.G.1.& % % % % % % & % % ",
"& & & & & & % % & % w k.G.<.% + + + + % + % + + + + + + + + + + + * 4 6 4 6 w 4.u.w & & + _ u.6 & % N V.G._ + % % % % % % % & % ",
"% & * % % % % % & + % :.G.c.i + + + + + + + + + + + + + + + + + + * 6 4 * 6 O.c.A % & % + -.1.& % %  .G.V.N + % % % % + + % & % ",
"+ + % % % & % + + + + F F.G.) + + + + + % % + + + + % % + + + + + * 6 * 6 } b.W 6 * % % 6 i.[ + % w d.G.w.6 % % % & + % & % % % ",
"+ + + + % % + + + + + 7 p.G.a.w + + + + + + + + + + + % % + + + + & * i $.b.! 6 6 - % + b c.V + + ! G.G.Q + % % % % + + % + % % ",
"+ + + + + + + + + + + + Q G.G.8.b + + + + + + + + + + % + + + + + @ D u.k.Y 6 6 6 6 & + } i.6 + w s.G.a.w % % & % % % + + % % % ",
"+ + + + + + + + + + + + 7 a.G.G.b.o.d + + + + + + + + + + + + 3 C ,.b.2.b * 6 6 4 6 * w d._ + %  .G.G.! * * % % + % + + + + % % ",
"+ + + + + + + + + + + + + L F.G.C.h.c.1.T c 7 & & * * 6 i S } i.v.8.F 6 * 3 7 6 3 4 * ) k.s + S N.G.r.7 6 & + % + + + + + + + + ",
"+ + + + + + + + + + + + + * ,.G.F.$.T 1.k.c.d.r.r.r.r.a.l.c.u.o.N * + * 6 4 3 3 4 3 v k.[ + j f.G.m.C + % + + + + + + + + + + + ",
"+ + + + + + + + + + + + + + i a.G.A.) * w A Q } O.@. .) F s 3 + + @ + @ 4 3 4 3 3 7 <.p.7 s i.G.F.) + + @ + + + + + + + + + + + ",
"+ + + + + + + + + + + + + + o b h.G.S.} 3 . + + + + + o . o + + + + + + * 3 4 * * ^ b.F N a.G.G.O.* + + * @ + + + + + + + + + + ",
"+ + + + + + + + + + + + o + + o n h.G.G.2.s + + + + + + + + + + + + + + & * * * S c.O./ v.G.G.O.* + + + + + + + + @ + + + + + + ",
"+ @ + + + + + + + + + + o + + o o b i.G.G.k.Q 3 + + + + + + + + + + + + + * # b g.f.8.F.G.C.} * + + + + + + + + + + + + + + + + ",
"+ + + + + + + + + + + o o o + o o o w :.F.G.F.8.A @ o + + + + + o + + + + O c p.G.A.G.G.x.T @ + + + + + + + + + + + @ + + + + + ",
"+ + + + + + + + + + + o o o o o o o o * T g.G.G.C.,.b + o + + o o o o o . d p.G.G.G.A.<.c * * @ + + + + + + + + + + + + + + + + ",
"+ + + + + + + + + + o o o o o o o o + + . y o.n.G.G.n. .y o o o o o   O F f.G.G.G.t.K 4 # 3 * * @ O + o + + + + + + + + + + + + ",
"+ + + + + + + + + o o o o o o o o o o + + + + b :.V.G.G.f.P @   o   p -.A.G.G.f./ y # * * * * * * * @ o + + + + + o o + + + + + ",
"+ @ + # + + + o o o o o o o o o o o o o o + + . + C 8.F.G.F.=.8 o F h.G.G.c.] 9 # 4 3 3 # # # 3 # 3 3 # O o o o o o o + + + + + ",
"+ + + @ + + + + o o o o o O @ o o o o o o o o o o   # R k.G.G.r.o.V.G.F.<.d   o # # # 3 # # # $ $ # # * # # O o o o + + o o o o ",
"+ + + + + + + o o o o o o $ 5 o o o o o o o o o o o     p 2.G.G.G.G.v.R O   o o O $ $ $ $ # # # $ # $ # # # # # @ + + o o o o o ",
"+ + + + + o o + + o o o o o o o o o o o o o o o o o   o   $ o.F.G.g.m     o o o o # # # # # # # # # $ # # # 3 3 3 # @ + o o o o ",
"+ + + o o + o @ @ o o O o o o o o o o o o o o o o o o o o   O ] r.d   o o o o o o o # # # # # # # # # O # # 3 3 3 $ # $ # # O o ",
"+ + + o o o o + o o o o o o o o O o o o o o o o o o o o o o o O 4   o o o o o o   o O # # # # # # # # @ o + # # 3 $ # # # 3 # # ",
"o o o o o o o o o o o o o o o o o o o o o o o o o o o o o o o o   o o o o o o o o   o # # $ # # # # # # O o o o @ # # # # # # 4 ",
"o o o o o o o o o o o o o o   o o o   o o o o o o o o o o o   o o o o o o o o o o o   o # # # # # $ $ # # + o o o o O # # # # $ "
};
