/* XPM */
static char *_ae91e53a34b40a0e9c7ba354e85a0ad0Qzh7DQMq2PccHcy[] = {
/* columns rows colors chars-per-pixel */
"64 64 144 2 ",
"   c #0D2527",
".  c #0D2728",
"X  c #072E2B",
"o  c #0D2B2B",
"O  c #11272A",
"+  c #112B2C",
"@  c #07312D",
"#  c #0B312E",
"$  c #10302F",
"%  c #162F30",
"&  c #063531",
"*  c #0B3531",
"=  c #0C3935",
"-  c #0D3C38",
";  c #123433",
":  c #193435",
">  c #133936",
",  c #1F3739",
"<  c #143C39",
"1  c #1B3C3A",
"2  c #233C3D",
"3  c #14413D",
"4  c #1A413D",
"5  c #20403E",
"6  c #1C4541",
"7  c #1E4944",
"8  c #244543",
"9  c #2C4545",
"0  c #254946",
"q  c #294947",
"w  c #234C49",
"e  c #2B4D4A",
"r  c #324B4C",
"t  c #24514C",
"y  c #2E514E",
"u  c #31504E",
"i  c #2F5350",
"p  c #355352",
"a  c #3B5454",
"s  c #365855",
"d  c #3B5957",
"f  c #375C59",
"g  c #3D5C5A",
"h  c #3E615E",
"j  c #435758",
"k  c #435B5B",
"l  c #495E5E",
"z  c #41605E",
"x  c #4C5F60",
"c  c #456461",
"v  c #4B6564",
"b  c #4F6B69",
"n  c #526666",
"m  c #516867",
"M  c #536C6B",
"N  c #596D6D",
"B  c #4C706D",
"V  c #52716E",
"C  c #5A706F",
"Z  c #5D6F70",
"A  c #567371",
"S  c #5B7372",
"D  c #5F7A77",
"F  c #627575",
"G  c #627877",
"H  c #677778",
"J  c #647C7A",
"K  c #697C7C",
"L  c #66807E",
"P  c #6B817F",
"I  c #668482",
"U  c #6D8482",
"Y  c #6E8987",
"T  c #738585",
"R  c #718987",
"E  c #778788",
"W  c #758A89",
"Q  c #7A8C8B",
"!  c #77908F",
"~  c #7D908F",
"^  c #7D9492",
"/  c #818F8F",
"(  c #828F90",
")  c #849594",
"_  c #869B99",
"`  c #8B9C9B",
"'  c #90A09F",
"]  c #929FA0",
"[  c #8DA2A0",
"{  c #93A3A2",
"}  c #99A6A6",
"|  c #96A8A6",
" . c #98A9A7",
".. c #9CABAA",
"X. c #9FB1AF",
"o. c #A2ADAD",
"O. c #A2B0AF",
"+. c #A5B3B2",
"@. c #ABB6B6",
"#. c #ABB8B7",
"$. c #ADBABA",
"%. c #B2BDBC",
"&. c #B3C0BF",
"*. c #B4C0BF",
"=. c #B6C1C0",
"-. c #BBC4C4",
";. c #BAC6C5",
":. c #BCC7C6",
">. c #BECAC9",
",. c #C1CDCB",
"<. c #C3CCCB",
"1. c #C3CECD",
"2. c #C5CFCE",
"3. c #C9CFCF",
"4. c #C8D0CF",
"5. c #C6D1D0",
"6. c #CAD3D2",
"7. c #CBD4D4",
"8. c #CDD4D4",
"9. c #D0D8D8",
"0. c #D5DADA",
"q. c #D4DCDB",
"w. c #D5DDDC",
"e. c #D9DEDE",
"r. c #DAE0DF",
"t. c #DBE1E1",
"y. c #DDE2E2",
"u. c #DEE3E3",
"i. c #E0E5E5",
"p. c #E2E7E7",
"a. c #E4E8E7",
"s. c #E5E9E9",
"d. c #E8ECEC",
"f. c #EBEFEE",
"g. c #ECF0EF",
"h. c #EEF0F0",
"j. c #F1F3F3",
"k. c #F2F4F4",
"l. c #F3F5F5",
"z. c #F4F6F6",
"x. c #F7F8F8",
"c. c gray98",
"v. c #FAFBFB",
"b. c white",
/* pixels */
"= = = = = = = = = = = = = * = = = = = = = = = = - - 3 6 = = = = = = = = = = = = = = = = = = = = - = = = = # = = = = = * # # = = ",
"= = = = = = = = = = = = * * = = = = = = = = = = = = 3 7 = = = = = = = = = = = = = = = = - = = = = = = # # = = = * = = * # # = = ",
"= = = = = = = = = = = = = = = * * = * = = - 7 = = = = = = = = = = = = - = = = = = = = t - = = = = = = = # = = = = * = # * = * * ",
"= = = - = = = = = = = = = = = * > = * * * = < = = = = = = = B B = = = = = = = = = = = < = = = = = * = = = = = = = * = * = = * = ",
"= = = - = = = = = = = = = = = = * = = = = = = = = = = = = I d.g.! 3 = = = = = = = = = = = = = = # * = # = = = * * = = = * # = = ",
"= = = = = = = = = = = = = = = * = # # = = = = = = = & 7 [ l.b.b.c.$.f = = = = = = = = = = = = = = = = = = = = = = = # * * = = = ",
"= = = = = = = = = = = = = = * = # = = = # = = = & - B ,.b.b.p.w.b.b.u.^ 7 = = = = = = * * = = = = = = * = * = = = = * * * = = = ",
"= = = = < = = = = = = = = * = = = > * = = = @ = h X.j.b.b.>.h e ..l.b.b.7.Y w = = = = = = = = * * * = = = = = = = = = * * = * = ",
"= = = = * = = = = = = = = = * = = > = # = 6 V #.d.b.b.s._ 0 & = > A 5.b.b.b.q._ h < # # = = = * # = * = # # = = = = = = * * = = ",
"* * = * * * = = = = = = & # @ @ = < e A { 9.x.b.b.h.+.h = = = = = & 7 U 7.b.b.b.h.;.^ c 0 * @ @ @ # * # # # = * = = = = = * * * ",
"* = * * > * * = = 6 e e p z V W  .>.p.c.b.b.b.p...c > @ = = = < = = = & 6 L ;.j.b.b.b.z.w.%.` L A g e e 8 * # = = = = # * # = # ",
"* = = = = * = = = [ s.p.d.j.c.b.b.b.b.b.s.&.Y y * # = = # 6 J ;.^ 6 = = = @ < c ` 2.h.b.b.b.b.b.c.g.a.s.+.= * = = = * = * = # # ",
"* = * = = * * = = O.b.b.b.b.c.h.t.;.{ D i < # # * * @ 4 J 1.u.#.w.:.g = = * = # & 1 g U ..6.p.j.b.b.b.b.=.* # = * = # # = = = * ",
"= * * * * * * = #  .b.d.^ J M d 0 > = # # = = # # 4 J 1.u.| s * s =.u.L = # # = * = # @ * 8 e z A E p.b.O.= = * * * * # = * # = ",
"* * = = * * * = # _ b.u.0 X @ # = = # # = = # 1 G 1.u.| s * # * # 4 ) s.{ 4 @ # * * = # # # # # @ 4 8.b...= = * # # # # # = # * ",
"* = = = * * * = @ _ b.p.e # # * * * * = # < A ,.s. .s = # = = = = * = A e.*.y # = * = 0 8 & # * # 0 u.b.` # # * # # # # # # = * ",
"= # = * * = * = @ ^ b.s.e # & = * * # # e %.p.+.g # 1 0 # # * # # = = # d 2.7.d # = * 8 1 # * * # e p.b._ @ = * * # # # # # = = ",
"& # * * & * * # @ U b.h.d # * * * * # X M d.b * 0 U ,.D @ # # # # # * * # 0 *.6.0 # * & & = = = # p d.b.W @ # # # # # # # # * * ",
"* * * # # * * = @ U b.h.g # # # * * * X A e.g ) r.b.p.e # # # X X # # * * # e 9.{ = = * * = = & # g h.b.U @ = = # # # * & & # & ",
"* # = = # * * * X J b.j.z # # & * * * @ U 8.e M ) *.` * # # X e G ; X # # * # J u.y # * * * = * # z j.b.G X * * # & * # # # # * ",
"# * * * * # * * X M c.c.b X # * * * * # U 0.0 X X * > # # X c 7.z.K X # # # X 8 w.J X * * # # # X M c.c.M X # * # # # # # # # # ",
"* * # * * * * * X M c.c.M # # # * * ; & A s.,.R e # X X ; U p.+...,.1 # # < > ; ;.{ # # * # # # X M c.c.b # * * # * * # # # # # ",
"* # # # # # # # X v x.b.V X # * * * * # * M t.b.u...v e | s.~ ; D e.8 X # ; ; # +.O.# # * * * # X J b.h.g # * * * * * # # # # # ",
"# # * * ; ; # * # g h.b.P X * * * > 0 q g =.t.{ U =.u.p.0.M X e ,.#.; # X X X ; :.` # # # * # # X U b.h.g X * * * # # # # # # # ",
"# * * # * * o o X g h.b.U # * # # s 8.u.h.2.d # X ; k Q p # M 9.,.p o # # > ; q r.G X # # # # * X Q b.s.u # ; ; # # # * # # X o ",
"* * * * o o o * # p d.b.R X * # # 4 M U d.A X # # # X X 1 _ s.} 8 X # # # 1 ; Q e.q X o o # # # X _ b.p.0 # ; # # # # # # X X o ",
"> * # # # ; # * # q p.b.) X # # * * ; z p.g # # # # X s ;.e.J * X # # # # X c u.Q o X # o o # # X { b.t.8 # # # * o o o o X o ; ",
"* * * # # # o # X q p.b.) X # # * * * e ` e # # X ; K t.*.s X X # # # X ; K u.+.1 X o o o # # * # ..b.8.1 X # # # # # # o o o o ",
"* ; ; # o o # # # 8 r.b.` X # # # # # # * * # # q  .s.) 1 X X X # # X 8 ..a.) 1 X X X X X X X # # o.b.8.1 # # # * # * # o X o # ",
"* # # # # * # # # 1 8.b...# # # # # * # # # # M 9.8.M # X X o * X # M 8.8.M o X # X X # # X # # ; *.b.:.> # # # * * # o o # o # ",
"# # # o o # # # o 1 8.b.o.# # # # # # # X < Q p.+.q X # o o o X 1 _ s. .8 X # o # o X X # X # # ; ;.b.;.; X X X # # X # o o o # ",
"# o # # X * # # # 1 2.b.+.* # # # # X X u $.u.U > # ; > o o X d :.e.G ; X o o o X o > 1 > X X # 1 2.b.+.# o o X X X X X o o o # ",
"o # # # # ; ; o o ; ;.b.;.; # # # X * A w.,.k X X o o * X ; U u.%.u X X o o X ; v  .2.8.,.` s X 1 8.b...X X o o o o X o o X X X ",
"o o # o o # # # # ; %.b.>.; X X X 5 ' s.` 1 X # X X X X 8 ..s.Q : X o o X X q o.p.%.Q U ) 2.u.U q r.b.` X X o o o o X o o o o X ",
"o o # # o # # * # o | b.e.8 X X k ,.e.S # o o o o o X v 7.7.v X X X o X # M 9.6.M ; X X X 1 ^ p. .j.b.U X X X o X X X X o o o X ",
"o o o o # # o o o X K b.z.b X G p.%.a o o o ; ; X ; E p.O.q X o o o X 8 { s.} 8 X o X o o X # ) c.b.j.k X o o o o o X X X X o o ",
"* o # o o # # o $ o p s.b.{ m p._ : X o o o o X e @.p.R ; X o o X o v 2.0.A + o o X o X o o X e p.b.6.1 X o o o o o o o o o o o ",
"o o # o o ; o o o o ; $.b.d.u...; X o o o o X v 9.4.k X X o o X 1 ) s.+.e X o o o o o o o o X v l.b.) X o o o o o o o o o o o o ",
"$ o o # o + o + o o X M z.b.a.r X o o o o ; E p.o.9 X o o o o k :.e.K ; X o o o o o o o o X ; #.b.s.s X o o o o o o o o o o o o ",
"; o o o o + o o o o o : =.b.s.s X o $ o o _ h.T ; o o o X : E p.%.p . o o o o o o ; o o o X M z.b.{ o o o o o o o o o + o o o o ",
"o o o o o o o o o o o X m j.b.@.; X o o o F d.P o X X o k %.u.E : X o o o o o o o o ; o o 2 2.b.p.r X o o o o o o o o o o o o o ",
"o o o o o o o o o o o o ; } b.c.U o o o o + Q a...C G +.p.%.d X X o o o o o o o o o o o o ) b.b.Q o o o o o o o o o o o o o o o ",
"o o o o o o + o o o o o o 9 9.b.p.k X o o o + N %.w.9.@.N : X o o o o o X + F N o o o X m h.b.;.1 o o o o o o o o o o o o o o o ",
"o o o o o ; ; o o o o o ; o N j.b.,.8 X o o + o ; 8 2 + o + o o o o o   2 { s.T o o X r 9.b.s.k X o o o o o o o . o o o o o o o ",
"o o o o o o o o o o o o o o o ) b.b.o.; o o o o o o o o o o o o o o o k ,.0.N + o o , %.b.c.T o o o o o o + o . . o . o o o o o ",
"o o o o o o o o o o o o o o o 1 @.b.b.) + o o o o o o o o + + + o : E p.#.r o o o % ] b.b...; X o o o o o o o + + + + o o o o o ",
"o o o ; + o o o o o o o o o o X 9 3.b.z.R o o o o o o o o + o X a %.p.E : . o o + Q c.b.:.2 X o o o . + + + o o o o . . o o + o ",
"o o o + + + o o o o o o + o o o X d e.b.h.K o o o o o o o X , T u.:.k o o o o + K l.b.9.r X o o o o . + o + o o + o o o + o o o ",
"o o + + + o o o + + o o o o o o o . m a.b.h.H + : o . . : N :.u.E 1   + o o o K h.b.p.l . o o o + . o o o o o o ; . o + + + o o ",
"+ + + + o o o o o + o o o + + o o , : M d.b.d.o.K M Z ) ,.p.o.a o o o + o o F h.b.a.M + o o . . . . o o o . . . o o o o o o + . ",
"+ + o + o o + o o o + + + + + + + % + . H h.b.b.c.p.0.,.` j + o + o + o o K d.b.d.Z . o o o o . . . + o . o     o o o o o + . + ",
"+ + o o o o o + + + + + o + + + o o o o + K h.b.c.) 9 : . . o o o o o o J h.b.h.J o o o o o o o . . o .         . . o o o . . . ",
". + + + + + + + o + + + + + + + o o o o o + N a.b.j.E + o . o o + . + T h.b.d.J o X o o o . o o . . . .       .     o o o o o o ",
". + + + + + o o o o + + o o + + + + + + + + o N a.b.x.` :   . o o % / z.b.a.M o o o o o o o o . . . .         .     . o . o o . ",
". . o o . o o . o o o o o o + , + . o o o + o o x 0.b.b.o.2   . 2 { c.b.t.n o o + + o . o o o o     .         . . .   . . o o . ",
". o + + . o o o . o o o o o + + . . o o o . . o . a 3.b.b.=.r 9 %.b.b.8.j . o o + + + + + .   .             . .           . .   ",
"+ + : % . o o o o o o o o o o o . . o . o o o . o   9 %.b.b.0.9.b.b.;.r   o . . o + o + + o o .       .   . + O                 ",
". . o o . . o o . . . o . o . o o + + . . . . . . o   2 } c.b.b.b.o.2 . . o . . . + o . o . . .           + 2 +                 ",
". . o o . . o . .   . . . . . . o o . . . . o . . o .   + T d.j.( : . . o o o o o o . . o . . o + .         .                   ",
". o o o o . o . . . + . . . . . . o o . . . . o o o . .   . v M + . . . o o o + o . . . . o   + % .   + .         .             ",
". . . . . . . . . . . . o o . . . o o + + . . o . o . . . + o   . . . o o o o o . . . .   .   . .               O +             ",
". . . . . . .   . . . . o o . . . . . + + . . . . . . . . o o o . . . o . . o . . .     .                       . +             ",
". .   .   .         . . + + .           . . . . . . . . . . . o . . . o . . . . .     . .       .                               ",
"    .               . .   . .           . . . .     . . .     o o o . . . . . . .   . . + .                                     "
};
